<svg width="18" height="19" viewBox="0 0 18 19" fill="none" xmlns="http://www.w3.org/2000/svg">
<path d="M9 0.857178C4.0374 0.857178 0 4.91788 0 9.90913C0 14.9004 4.0374 18.9611 9 18.9611C13.9626 18.9611 18 14.9004 18 9.90913C18 4.91788 13.9626 0.857178 9 0.857178ZM8.4501 4.15299L9 5.14871L9.5499 4.15299L11.1231 5.03194L10.0296 7.0125L9 8.8763L8.4294 9.90913H6.3711L7.9713 7.0125L6.8769 5.03103L8.4501 4.15299ZM6.9291 12.6247L5.7492 14.7601L4.176 13.8811L4.8708 12.6247H3.6V10.8143H4.4523C4.4568 10.817 4.4604 10.8188 4.4649 10.8216C4.4775 10.8207 4.4874 10.8143 4.5 10.8143H5.8707H7.929H8.6337H9.0405L10.0404 12.6247H6.9291ZM14.4 12.6247H13.1292L13.8231 13.882L12.2499 14.761L11.0709 12.6247H11.0376C11.0394 12.622 11.0412 12.6184 11.043 12.6157C11.0466 12.6111 11.0529 12.603 11.0565 12.5985L9.8379 10.3925L9.5148 9.80774L10.5444 7.94395L12.1293 10.8143H14.4V12.6247Z" fill="#161010"/>
</svg>
