<svg width="57" height="57" viewBox="0 0 57 57" fill="none" xmlns="http://www.w3.org/2000/svg">
<g clip-path="url(#clip0_1_153)">
<path fill-rule="evenodd" clip-rule="evenodd" d="M4.4533 28.5C4.4533 22.0821 7.08418 16.0166 11.5504 11.5504C13.7072 9.39359 15.7698 7.93688 18.6282 6.605C20.8236 5.58192 24.4308 4.58697 27.0563 4.56832C27.6887 4.56389 27.8328 4.44569 28.4997 4.44569C29.7614 4.44569 32.7396 4.83033 33.8667 5.09803C34.6689 5.2883 35.4672 5.48141 36.2255 5.74501C42.5195 7.93245 47.5909 12.6117 50.3947 18.6285C51.4115 20.8109 52.4131 24.4563 52.4314 27.0566C52.4358 27.689 52.554 27.8331 52.554 28.5C52.554 29.75 52.1653 32.7567 51.9017 33.867C50.8024 38.4995 48.7265 42.1721 45.449 45.4496C43.7518 47.1469 43.1968 47.5246 41.3248 48.7844C40.1702 49.5612 38.6547 50.2885 37.3421 50.8131C36.9252 50.9797 36.6521 51.1068 36.2255 51.255C35.4672 51.5186 34.6686 51.7117 33.8667 51.902C32.8016 52.1548 31.1676 52.4228 29.9432 52.4317C29.3107 52.4361 29.1666 52.5543 28.4997 52.5543C27.8597 52.5543 27.7348 52.4469 27.1672 52.432C26.5212 52.4152 26.2143 52.4203 25.6966 52.3438C21.0527 51.6577 18.5195 50.6643 14.8061 48.205C12.7894 46.8694 10.1297 44.2097 8.79437 42.1933C6.05351 38.0542 4.45299 33.6119 4.45299 28.4994L4.4533 28.5ZM27.7958 0H29.5651C33.4489 0.113149 37.2719 0.975674 40.5615 2.63404C45.455 5.10056 48.5941 7.62145 51.8321 12.0706C52.8568 13.4787 53.5531 14.8257 54.3663 16.4389C55.6719 19.0293 57.0003 23.6567 57.0003 27.4984V29.5022C57.0003 33.3885 55.635 38.0481 54.329 40.6354C51.9045 45.4373 49.3157 48.6598 44.9304 51.8324C43.5122 52.8584 42.1829 53.5493 40.5621 54.3663C37.9717 55.6719 33.3443 57.0003 29.5026 57.0003H27.4987C23.5979 57.0003 18.9629 55.6403 16.3656 54.329C13.4351 52.8495 9.42554 50.2986 7.41288 47.6959C5.58132 45.3276 5.75357 46.0302 3.77978 42.7568C3.35184 42.0469 2.99532 41.2836 2.5974 40.4881C0.586634 36.4694 0.000976562 32.3866 0.000976562 27.3872C0.000976562 22.0837 2.39512 15.7783 5.26399 11.9432C7.99379 8.29402 10.1784 6.23142 14.2445 3.77944C18.1412 1.42954 22.9608 0.141278 27.7965 0.000632118L27.7958 0Z" fill="#2D6A4F"/>
<path fill-rule="evenodd" clip-rule="evenodd" d="M13.1099 24.6874L28.4725 40.1057L43.8915 24.7427L40.7739 21.5704L28.5279 33.7598L16.2818 21.5701L13.1099 24.6874Z" fill="#2D6A4F"/>
</g>
<defs>
<clipPath id="clip0_1_153">
<rect width="57" height="57" fill="white"/>
</clipPath>
</defs>
</svg>
