<svg width="19" height="19" viewBox="0 0 19 19" fill="none" xmlns="http://www.w3.org/2000/svg">
<rect width="19" height="19" fill="black"/>
<g clip-path="url(#clip0_1_176)">
<path fill-rule="evenodd" clip-rule="evenodd" d="M5 8.70364C5 9.04308 5.25464 9.30963 5.5789 9.30963C5.82602 9.30963 5.95745 9.14768 6.08553 9.0135L7.29609 7.7463C7.37792 7.66065 8.86792 6.07593 8.92109 6.05901V14.4316C8.92109 14.744 9.16525 14.9996 9.4637 14.9996C9.76215 14.9996 10.0063 14.744 10.0063 14.4316V6.05901H10.079L12.9013 8.99967C13.0575 9.16321 13.1665 9.30952 13.4474 9.30952C13.7337 9.30952 14.0001 9.04308 14.0001 8.70354C14.0001 8.38283 13.7244 8.18076 13.5593 8.00796C13.3643 7.80376 13.1886 7.61989 12.9935 7.4157L10.1777 4.46813C10.0033 4.28553 9.81744 3.99951 9.50009 3.99951C9.1868 3.99951 9.00749 4.27447 8.8356 4.45429L5.45397 7.99412C5.28655 8.16937 5 8.37953 5 8.70343V8.70364Z" fill="white"/>
</g>
<defs>
<clipPath id="clip0_1_176">
<rect width="9" height="11" fill="white" transform="translate(5 4)"/>
</clipPath>
</defs>
</svg>
