<svg width="15" height="18" viewBox="0 0 15 18" fill="none" xmlns="http://www.w3.org/2000/svg">
<path d="M2.01355 0.259766L8.5816 7.52857L10.5235 5.3801C7.17736 3.36872 2.75196 0.70792 2.01355 0.259766ZM0.117199 0.719904C0.0463589 0.895269 0 1.08768 0 1.30113V16.4355C0 16.61 0.0369829 16.7711 0.0911551 16.9216L7.42588 8.80692L0.117199 0.719904ZM12.0211 6.28135L9.73732 8.80692L12.0032 11.3152C13.3941 10.4782 14.3569 9.89846 14.3569 9.89846C14.7728 9.63009 15.0057 9.21706 14.9999 8.76714C14.9941 8.32873 14.7537 7.92428 14.3553 7.68426C14.3011 7.65148 13.3612 7.08643 12.0211 6.28135ZM8.5816 10.087L2.06238 17.2987C3.185 16.6203 7.33197 14.1242 10.5056 12.2147L8.5816 10.087Z" fill="#161010"/>
</svg>
